HIERARCHY
ROOT Hips
{
	OFFSET 0.000000 0.000000 0.000000
	CHANNELS 6 Xposition Yposition Zposition Xrotation Yrotation Zrotation
	JOINT LeftUpLeg_virtual
	{
		OFFSET 0.000000 0.000000 0.000000
		CHANNELS 3 Xrotation Yrotation Zrotation
		JOINT LeftUpLeg
		{
			OFFSET 15.427100 -6.655098 0.678600
			CHANNELS 3 Xrotation Yrotation Zrotation
			JOINT LeftLeg
			{
				OFFSET 4.081073 -39.591068 13.024000
				CHANNELS 3 Xrotation Yrotation Zrotation
				JOINT LeftFoot
				{
					OFFSET -4.081074 -37.707932 -15.979700
					CHANNELS 3 Xrotation Yrotation Zrotation
					JOINT LeftToeBase
					{
						OFFSET 5.346399 -15.068900 20.645000
						CHANNELS 3 Xrotation Yrotation Zrotation
						JOINT LeftToe_End
						{
							OFFSET 2.754700 0.931300 11.300900
							CHANNELS 3 Xrotation Yrotation Zrotation
							End Site
							{
								OFFSET 0 0 0
							}
						}
					}
				}
			}
		}
	}
	JOINT RightUpLeg_virtual
	{
		OFFSET 0.000000 0.000000 0.000000
		CHANNELS 3 Xrotation Yrotation Zrotation
		JOINT RightUpLeg
		{
			OFFSET -15.569500 -6.655098 0.678600
			CHANNELS 3 Xrotation Yrotation Zrotation
			JOINT RightLeg
			{
				OFFSET -4.081825 -39.591045 13.023800
				CHANNELS 3 Xrotation Yrotation Zrotation
				JOINT RightFoot
				{
					OFFSET 4.081824 -37.707954 -15.979600
					CHANNELS 3 Xrotation Yrotation Zrotation
					JOINT RightToeBase
					{
						OFFSET -5.346400 -15.068900 20.645000
						CHANNELS 3 Xrotation Yrotation Zrotation
						JOINT RightToe_End
						{
							OFFSET -2.754700 0.931300 11.300900
							CHANNELS 3 Xrotation Yrotation Zrotation
							End Site
							{
								OFFSET 0 0 0
							}
						}
					}
				}
			}
		}
	}
	JOINT Spine_virtual
	{
		OFFSET 0.000000 0.000000 0.000000
		CHANNELS 3 Xrotation Yrotation Zrotation
		JOINT Spine
		{
			OFFSET -0.279200 12.230698 -2.892100
			CHANNELS 3 Xrotation Yrotation Zrotation
			JOINT Spine1
			{
				OFFSET -0.232667 10.192268 -1.242267
				CHANNELS 3 Xrotation Yrotation Zrotation
				JOINT Spine1_split
				{
					OFFSET -0.232667 10.192268 -1.242267
					CHANNELS 3 Xrotation Yrotation Zrotation
					JOINT Spine2
					{
						OFFSET -0.232667 10.192268 -1.242267
						CHANNELS 3 Xrotation Yrotation Zrotation
						JOINT Neck_virtual
						{
							OFFSET 0.000000 0.000000 0.000000
							CHANNELS 3 Xrotation Yrotation Zrotation
							JOINT Neck
							{
								OFFSET -0.418800 17.814194 8.416900
								CHANNELS 3 Xrotation Yrotation Zrotation
								JOINT Head
								{
									OFFSET 0.000000 7.031097 3.806800
									CHANNELS 3 Xrotation Yrotation Zrotation
									JOINT HeadTop_End
									{
										OFFSET 0.000000 24.646606 12.978600
										CHANNELS 3 Xrotation Yrotation Zrotation
										End Site
										{
											OFFSET 0 0 0
										}
									}
								}
							}
						}
						JOINT LeftShoulder_virtual
						{
							OFFSET 0.000000 0.000000 0.000000
							CHANNELS 3 Xrotation Yrotation Zrotation
							JOINT LeftShoulder
							{
								OFFSET 8.476499 7.247704 -3.868750
								CHANNELS 3 Xrotation Yrotation Zrotation
								JOINT LeftShoulder_split
								{
									OFFSET 8.476499 7.247704 -3.868750
									CHANNELS 3 Xrotation Yrotation Zrotation
									JOINT LeftArm
									{
										OFFSET 9.308998 -2.777710 0.208600
										CHANNELS 3 Xrotation Yrotation Zrotation
										JOINT LeftForeArm
										{
											OFFSET 29.972298 0.000000 0.000000
											CHANNELS 3 Xrotation Yrotation Zrotation
											JOINT LeftHand
											{
												OFFSET 26.026505 0.000000 0.000000
												CHANNELS 3 Xrotation Yrotation Zrotation
												End Site
												{
													OFFSET 0 0 0
												}
											}
										}
									}
								}
							}
						}
						JOINT RightShoulder_virtual
						{
							OFFSET 0.000000 0.000000 0.000000
							CHANNELS 3 Xrotation Yrotation Zrotation
							JOINT RightShoulder
							{
								OFFSET -7.570500 7.247704 -3.868750
								CHANNELS 3 Xrotation Yrotation Zrotation
								JOINT RightShoulder_split
								{
									OFFSET -7.570500 7.247704 -3.868750
									CHANNELS 3 Xrotation Yrotation Zrotation
									JOINT RightArm
									{
										OFFSET -9.308998 -2.777710 0.208500
										CHANNELS 3 Xrotation Yrotation Zrotation
										JOINT RightForeArm
										{
											OFFSET -29.972300 0.000000 0.000000
											CHANNELS 3 Xrotation Yrotation Zrotation
											JOINT RightHand
											{
												OFFSET -26.026505 0.000000 0.000000
												CHANNELS 3 Xrotation Yrotation Zrotation
												End Site
												{
													OFFSET 0 0 0
												}
											}
										}
									}
								}
							}
						}
					}
				}
			}
		}
	}
}
MOTION
Frames: 9
Frame Time: 0.03333333
2.211762 82.316498 0.583996 0.000000 0.000000 0.000000 7.955914 -67.215632 9.780653 -29.455785 12.752708 25.906897 32.279177 -5.274409 -2.345038 -8.986477 -2.931279 -17.265909 1.283366 0.145582 0.731550 0.000000 0.000000 0.000000 5.700312 -66.356572 8.330301 -17.822940 -10.978882 -35.947204 24.759393 -2.583090 -2.483075 -7.466122 -4.339244 21.878981 -2.573726 0.903341 0.736821 0.000000 0.000000 0.000000 3.067591 -64.456775 5.559125 16.351922 0.673332 -4.431069 4.582989 0.825569 -2.660020 0.531320 2.432007 0.603542 0.000000 0.000000 0.000000 4.211929 0.536618 -2.631191 -4.989277 2.986284 2.965575 -15.662220 52.788046 -3.310306 0.000000 0.000000 0.000000 4.800383 0.194027 -2.691884 2.598180 -3.364305 -11.193867 -3.310505 -5.693936 1.576191 -37.739910 28.641237 -33.339827 3.185883 -42.868214 4.461695 0.000000 0.000000 0.000000 5.371266 0.635009 -2.422079 1.876052 5.752920 9.240807 4.230585 4.502381 0.734891 4.646401 -9.717987 55.013878 -20.247862 35.297147 13.453177 0.000000 0.000000 0.000000 
1.723129 82.810509 2.561222 0.000000 0.000000 0.000000 7.293187 -67.735744 9.166647 -29.627544 13.399837 25.801960 32.757051 -5.191115 -2.084920 -8.774591 -2.507228 -17.554334 0.858675 0.044623 1.169319 0.000000 0.000000 0.000000 6.721088 -67.399364 8.929035 -17.419885 -10.415270 -35.746396 25.380580 -2.896389 -2.414499 -6.745525 -4.703240 21.090516 -2.531713 0.711424 1.159243 0.000000 0.000000 0.000000 4.072636 -64.937559 6.117178 16.218870 0.494549 -4.376045 4.513407 0.679675 -2.579222 0.364575 2.443824 0.568514 0.000000 0.000000 0.000000 3.919934 0.446025 -2.575425 -5.211105 3.149216 2.516944 -14.794475 52.666219 -3.944642 0.000000 0.000000 0.000000 4.699260 0.042403 -2.648970 2.640645 -3.823125 -10.858303 -3.594777 -5.626289 1.820193 -38.651959 28.758392 -32.737653 3.102229 -43.876626 4.578460 0.000000 0.000000 0.000000 5.305129 0.590983 -2.372883 1.851695 6.345933 9.607568 3.581116 3.754834 0.361055 3.496256 -9.845836 54.519072 -19.764544 33.827079 12.948072 0.000000 0.000000 0.000000 
1.171816 83.317787 5.049225 0.000000 0.000000 0.000000 6.908481 -68.494722 8.730866 -29.435923 14.163812 25.389531 33.529706 -4.930137 -1.925012 -9.357392 -1.746749 -16.946809 0.079752 -0.049347 1.614851 0.000000 0.000000 0.000000 7.856977 -68.467674 9.611539 -17.359785 -8.773393 -35.412789 27.107728 -3.238793 -1.997115 -6.462192 -5.752253 20.011179 -2.845797 0.528889 1.699827 0.000000 0.000000 0.000000 5.503637 -65.470095 7.008662 15.977617 0.288453 -4.249397 4.233433 0.290451 -2.413314 0.307477 2.353695 0.426786 0.000000 0.000000 0.000000 3.430381 0.066152 -2.381884 -5.227735 3.763829 1.978676 -13.856528 52.623076 -4.707371 0.000000 0.000000 0.000000 4.362121 -0.376141 -2.488925 2.674390 -4.275800 -10.625902 -3.761752 -5.181398 1.893371 -40.173035 28.579130 -31.743106 4.382928 -43.745617 5.682434 0.000000 0.000000 0.000000 4.947406 0.259519 -2.204683 1.903847 7.015068 10.003208 2.985265 3.106051 0.077709 1.350200 -9.821661 53.720944 -18.717896 30.790363 11.845938 0.000000 0.000000 0.000000 
0.610587 83.529892 7.641750 0.000000 0.000000 0.000000 7.038983 -69.229261 8.685321 -29.261135 14.828607 24.843630 34.770881 -4.557841 -1.893249 -10.681069 -0.848271 -15.465961 -0.516843 -0.115375 1.841838 0.000000 0.000000 0.000000 9.260712 -69.238113 10.551876 -17.942330 -6.408127 -34.826117 29.154847 -3.363695 -1.291718 -6.807134 -7.017994 19.009591 -3.114362 0.441251 2.115779 0.000000 0.000000 0.000000 7.053983 -65.812957 8.023942 15.709613 0.036766 -4.072528 3.810199 -0.293193 -2.181105 0.353995 2.107874 0.361958 0.000000 0.000000 0.000000 2.857821 -0.543297 -2.088419 -5.023390 4.717872 1.415980 -13.108677 52.545311 -5.348149 0.000000 0.000000 0.000000 3.862503 -0.996688 -2.238596 2.702603 -4.699272 -10.535788 -3.956383 -4.484134 1.905077 -41.877112 27.996773 -30.718701 6.633861 -42.425672 7.466347 0.000000 0.000000 0.000000 4.401423 -0.319983 -1.961664 2.053478 7.592959 10.400151 2.587804 2.711386 -0.096271 -1.211154 -9.389050 52.994065 -17.491587 27.396971 10.587509 0.000000 0.000000 0.000000 
0.157849 83.318192 9.844452 0.000000 0.000000 0.000000 7.907820 -69.648197 9.254429 -29.735273 15.197748 24.366867 36.612976 -4.257961 -1.965706 -12.437091 -0.103927 -13.524842 -0.663226 -0.146130 1.795991 0.000000 0.000000 0.000000 10.862863 -69.393499 11.666313 -19.368017 -3.908213 -33.898246 31.217581 -3.192502 -0.378916 -7.923207 -8.059599 18.308100 -2.727887 0.515878 2.238333 0.000000 0.000000 0.000000 8.857386 -65.957723 9.225406 15.433320 -0.258021 -3.839511 3.340909 -0.977766 -1.926149 0.412514 1.569378 0.384393 0.000000 0.000000 0.000000 2.317312 -1.275341 -1.765085 -4.719377 5.857622 0.841430 -12.918147 52.228346 -5.561674 0.000000 0.000000 0.000000 3.320483 -1.707390 -1.954840 2.721866 -5.065434 -10.480365 -4.129767 -3.831810 1.834743 -43.467102 26.778863 -29.904255 9.294184 -40.395217 9.527639 0.000000 0.000000 0.000000 3.796259 -1.047674 -1.700057 2.282806 7.929394 10.754259 2.310068 2.497485 -0.226233 -3.507928 -8.536148 52.635862 -16.313393 24.700483 9.427317 0.000000 0.000000 0.000000 
-0.235658 82.453568 11.655251 0.000000 0.000000 0.000000 9.680334 -69.601076 10.585078 -31.211844 15.070809 24.116995 39.251984 -4.311410 -2.032010 -14.228076 0.254331 -11.728417 -0.607934 -0.160643 1.684669 0.000000 0.000000 0.000000 12.542709 -69.001412 12.904636 -21.687334 -1.890782 -32.679692 33.275514 -2.693582 0.733194 -9.792649 -8.709447 18.020237 -1.417783 0.724783 2.045095 0.000000 0.000000 0.000000 10.735926 -65.678122 10.475695 15.077740 -0.561907 -3.589948 2.922964 -1.648440 -1.707900 0.424923 0.977407 0.423384 0.000000 0.000000 0.000000 1.923546 -1.996815 -1.486347 -4.478567 7.044196 0.247872 -13.608188 51.541799 -5.098608 0.000000 0.000000 0.000000 2.867996 -2.377266 -1.698931 2.749272 -5.384851 -10.368990 -4.156767 -3.264207 1.596633 -44.833850 24.913414 -29.308028 11.901016 -38.166814 11.545710 0.000000 0.000000 0.000000 3.250340 -1.790796 -1.494277 2.570906 7.908634 11.006208 2.218394 2.333617 -0.249484 -5.058357 -7.379079 52.815298 -15.269197 23.245173 8.438707 0.000000 0.000000 0.000000 
-0.721220 81.042664 12.950409 0.000000 0.000000 0.000000 12.139825 -68.918774 12.554578 -33.623317 14.404268 24.041154 42.596024 -4.706636 -1.987433 -15.829788 0.297934 -10.475350 -0.701890 -0.188564 1.650632 0.000000 0.000000 0.000000 14.379816 -68.149339 14.370899 -24.925843 -0.872922 -31.461234 35.815285 -1.889844 1.976310 -12.179338 -8.952548 18.037519 0.245377 0.993400 1.591421 0.000000 0.000000 0.000000 12.895739 -64.902534 11.929170 14.633559 -0.823737 -3.339052 2.620915 -2.207065 -1.591879 0.425261 0.540826 0.540510 0.000000 0.000000 0.000000 1.721387 -2.591722 -1.315046 -4.462162 8.180288 -0.355508 -15.204978 50.471765 -3.936464 0.000000 0.000000 0.000000 2.558010 -2.901391 -1.550369 2.807165 -5.700553 -10.153445 -4.170531 -2.870043 1.375535 -46.113162 22.540365 -28.814680 14.091053 -35.926378 13.275206 0.000000 0.000000 0.000000 2.857104 -2.412274 -1.405312 2.918429 7.611131 11.192801 2.235215 2.161597 -0.218197 -5.910803 -6.274863 53.432737 -14.426517 23.087043 7.642957 0.000000 0.000000 0.000000 
-1.208178 79.277565 13.525047 0.000000 0.000000 0.000000 15.016960 -67.650469 14.893625 -36.914314 13.187306 24.105652 46.477040 -5.313105 -1.784971 -17.105089 0.316090 -9.948508 -1.033556 -0.226392 1.697337 0.000000 0.000000 0.000000 16.437175 -67.041387 16.109575 -28.921900 -0.978441 -30.568775 39.325422 -0.929647 3.234804 -14.782920 -8.908944 18.024167 1.572431 1.228343 1.058300 0.000000 0.000000 0.000000 15.616022 -63.853308 13.908955 14.063483 -1.005949 -3.068308 2.496000 -2.593053 -1.617369 0.446918 0.179937 0.668400 0.000000 0.000000 0.000000 1.705452 -2.998607 -1.293051 -4.749339 9.214949 -0.995241 -17.568039 48.975106 -2.245840 0.000000 0.000000 0.000000 2.399841 -3.244114 -1.548213 2.901696 -6.033753 -9.716910 -4.180148 -2.775527 1.156896 -47.421296 19.783144 -28.242089 15.791336 -33.864034 14.643193 0.000000 0.000000 0.000000 2.645840 -2.835089 -1.444798 3.294627 7.198085 11.340494 2.274453 2.108434 -0.220435 -6.385401 -5.598823 54.309682 -13.862917 23.979939 7.039829 0.000000 0.000000 0.000000 
-1.590427 77.236473 13.593224 0.000000 0.000000 0.000000 17.956229 -65.876328 17.273159 -40.925954 11.450911 24.293695 50.705050 -5.925808 -1.471348 -18.050621 0.435899 -10.093895 -1.435219 -0.277969 1.773904 0.000000 0.000000 0.000000 18.847200 -65.862947 18.218094 -33.477226 -1.904724 -30.347104 43.998156 0.163914 4.390690 -17.445387 -8.682466 17.662982 2.474658 1.372092 0.620943 0.000000 0.000000 0.000000 18.851768 -62.608820 16.466087 13.353937 -1.114900 -2.820526 2.557283 -2.818760 -1.773126 0.507022 0.063212 0.720631 0.000000 0.000000 0.000000 1.850973 -3.231674 -1.409579 -5.246936 10.126415 -1.685760 -20.461976 47.095715 -0.301490 0.000000 0.000000 0.000000 2.389202 -3.440743 -1.671426 3.045711 -6.433765 -9.086664 -4.191724 -2.928471 0.968144 -48.816243 16.811505 -27.452800 17.036910 -31.904702 15.638517 0.000000 0.000000 0.000000 2.602295 -3.076142 -1.590763 3.685672 6.824294 11.455243 2.399635 2.250441 -0.231612 -6.831323 -5.468455 55.221434 -13.617806 25.631017 6.649116 0.000000 0.000000 0.000000 
